/* XPM */
static char *a0bff88d118847cfdb1a048bde1e3cb7lIjslc3vd6bQXbnE[] = {
/* columns rows colors chars-per-pixel */
"50 50 77 1 ",
"  c #307F38",
". c #336643",
"X c #326644",
"o c #336644",
"O c #336744",
"+ c #336645",
"@ c #326F40",
"# c #347440",
"$ c #2D962E",
"% c #2D982C",
"& c #2C992C",
"* c #2C992D",
"= c #2D992D",
"- c #2E9A2C",
"; c #2E9D2D",
": c #2F9D2D",
"> c #2F8436",
", c #2F8835",
"< c #2F8935",
"1 c #308038",
"2 c #34803C",
"3 c #35803C",
"4 c #2E9130",
"5 c #319930",
"6 c #359F30",
"7 c #30A12D",
"8 c #33A02F",
"9 c #31A42D",
"0 c #32A52C",
"q c #33A72E",
"w c #34A92C",
"e c #35A92C",
"r c #34A92D",
"t c #35AE2C",
"y c #36B12C",
"u c #37B12C",
"i c #37B22C",
"p c #36B32C",
"a c #37B22D",
"s c #3BB42E",
"d c #36A430",
"f c #37A530",
"g c #38A531",
"h c #3CA432",
"j c #3DA432",
"k c #3AA831",
"l c #3BA932",
"z c #4BAE36",
"x c #4BAE37",
"c c #43B235",
"v c #47BB35",
"b c #49B837",
"n c #4BBD37",
"m c #4BB93B",
"M c #4FBF38",
"N c #4DBC3A",
"B c #50BF39",
"V c #51BF39",
"C c #58B83C",
"Z c #58C33C",
"A c #59C33C",
"S c #63C63F",
"D c #62C73F",
"F c #3AA243",
"G c #3AA343",
"H c #3AA443",
"J c #3EA841",
"K c #48AD44",
"L c #72CF45",
"P c #73CF45",
"I c #76CD46",
"U c #76CD47",
"Y c #77C34A",
"T c #7CD348",
"R c #85D74B",
"E c #86D84B",
"W c #87D84B",
/* pixels */
"=E=====================R==E=================&===R=",
"E=i==M=======MH==W===g=G=E=p==A=======MG==W=&&q=G=",
"oi=L=========oo==*=Z=c=$=Oy=P=&&======XO====A=s&*=",
"x===L=w====7jfL=x**&,7x$bz==*P=0====7hgL=x===<8x*b",
"oGoxM=======1io=H=====M$=XGXxZ&&===$=1uX=G====$Z==",
"==ZqYg===:==>=jJ:K=k:$$ ===ZwYq&=*7==>=jJ:K=k:$=#=",
"======M====W=================*$M**&&W===========*4",
"========i==M====MM=TM7=EM====**$$i&&Z====MM=TM7=TZ",
"====*======o1WM==Z$qi**iX=======*===X WM==M=8t&&io",
"===7*i=G=o===io=&$$*=**=====7=t=G*X*==uO=====&&&:*",
"=====t&&==Mi ==M&T&cG=========t=**&Zy ==M=R*mG&&&*",
"==iw$b$&y$y*=i==y=***LGRM==uw=b=&y&y==u==i***=IGRZ",
"=====6&&===========k&$-7 &&===6==*=========*l=5=q ",
"o=M=*6*o==B=====X==#&&WZ&X&Z==8=X*=M=====o==#==Wn$",
"M===Go=ZM**i=====i=jZ&=M&M==$Go=nM==i=====i=jB==Z&",
"Mi======M=**$======s====$Mi=====*Z===$=====*i===&&",
"===g=y=M*n=R===$=i===PnR&&==f=i=M=M=W=====i=**DMR*",
"A==gy=M=*&Zn$i====*f=gnZMn==fi=Z===MM=i=====h=fMMM",
"=*======*=&&======*$====***==*&&=====**$====$===**",
"::=f==n=M==Z==q===$$===T*::*q**b=M==M=*d====$===T*",
"yp=*u:==yX==*MyX$G*I&1=u=ii=$i:==yO=&&Zyo=G=I=2=y=",
"e*=7===e====*>>w===N=c===w==q===e=&=&&,>w===B=c=*=",
"=====:=GO==MCMZ=R==:o$E=i===$=:=GX==nCZM=R===X=R=y",
"=X======u=G=&&&=i=MmB=B===o======y=G*&===i=BmB=M==",
"=====t====uO==*G$G$q===o======t====uO===G*G*f===X=",
"=E============&&=&&&===R==E============&=***====E=",
"E=p=&Z=======ZF&=W**=g=G=E=u**Z&====$=MG==E*==g4H=",
"Xy=P&========XX&===Z=c===Xu=L*&&======OO=***Z=s===",
"x===L*w====7gfL=x==:,qx=bx==*L=w====7jfI=x==:<7x=v",
"oGoxn*===$==1uO=G=====M$=oGoxM======= iO=G=====A==",
"==ZqYf===8==>=jJ:K=k:$4 ===ZqYf===7==>=gJ:K=g:$= 4",
"======M====W=========$$==*=====M==$=R===*=======$$",
"========i==Z&=**nZ&TM:=WZ***=====i==B====MM=TM:*RM",
"==$========O RM*=A&:i*=io**$========o RB==M=fi==yX",
"=*=7=t=G=o=$=yX=====*==***==7=t5G=o===io========&&",
"=====t====Bu1==M=W=mG=**=====*t*===Mi1=*M=R=mG==**",
"==ye=b==y*y&=u==i===*LGRM==iw=c*=i*i==i*=i====LGRZ",
"==$&=8===*=&=======g*5=q =====f===*$=======$l=**9 ",
"o&M&=7=o*=A&==$=o=$ &&RM=o=M==6=o**M=====o5$ $*RZ$",
"Z*&&Go=BZ==u=====w$hm&=M=M===Go*Zn*&i=====u56N**M*",
"Zi===***n$******===i==**=Zi=****=M======$===i===**",
"===f=i*n&Z*R****=i==&LnR&===q*y*N=B*W==$==i===AAE*",
"n*=fi=Z&&&Zn*y*====6&dZnMM==gi=Z===MM=y&====7*gAMM",
"**======&$&&=======$$&&&&$====&$=============**===",
"::=f==n=Z=*n==q$===$===T=::=f==M=A==Z**q====$$==T*",
"ii==i:==yX=&=MtO=G=U=2=y=yy$=u:==iX&=*nto=H=U$3=i=",
"q=$q==*w&&&&&<1e===M=c===e==7===w=&&**>,w===M=c===",
"==**$:*FX&&ZCnA&R==7o=E=y=====:=Ho$$nCAM=W===o=W=i",
"=o=$====i=H=====y=BbM=M===O=====*i=H=====i=MbM=M==",
"=====t====iX===G=H$q===O======t=*==io===H*H=f$=*o="
};
