/* XPM */
static char * C_xpm[] = {
"50 50 160 2",
"  	c #2D992D",
". 	c #86D84B",
"+ 	c #85D74B",
"@ 	c #2C992C",
"# 	c #37B22C",
"$ 	c #4FBF38",
"% 	c #3AA443",
"& 	c #87D84B",
"* 	c #38A531",
"= 	c #3AA343",
"- 	c #36B32C",
"; 	c #59C33C",
"> 	c #33A72E",
", 	c #336644",
"' 	c #72CF45",
") 	c #2C992D",
"! 	c #58C33C",
"~ 	c #43B235",
"{ 	c #2D962E",
"] 	c #336744",
"^ 	c #36B12C",
"/ 	c #73CF45",
"( 	c #326644",
"_ 	c #3BB42E",
": 	c #4BAE37",
"< 	c #34A92C",
"[ 	c #30A12D",
"} 	c #3DA432",
"| 	c #37A530",
"1 	c #2F8835",
"2 	c #49B837",
"3 	c #4BAE36",
"4 	c #32A52C",
"5 	c #3CA432",
"6 	c #2F8935",
"7 	c #33A02F",
"8 	c #308038",
"9 	c #FCBB12",
"0 	c #FBC51C",
"a 	c #FDBD0B",
"b 	c #FAD34E",
"c 	c #FBE07E",
"d 	c #F7D156",
"e 	c #99A229",
"f 	c #CFBC37",
"g 	c #B89E2D",
"h 	c #FEBA05",
"i 	c #FEB302",
"j 	c #F7AF11",
"k 	c #37B12C",
"l 	c #77C34A",
"m 	c #2F9D2D",
"n 	c #2F8436",
"o 	c #3EA841",
"p 	c #FBCC34",
"q 	c #FDC00D",
"r 	c #FEA402",
"s 	c #5A7614",
"t 	c #567812",
"u 	c #3C560E",
"v 	c #6BA414",
"w 	c #A2BC37",
"x 	c #FE9B03",
"y 	c #48AD44",
"z 	c #3AA831",
"A 	c #347440",
"B 	c #FEAB02",
"C 	c #FE8405",
"D 	c #C64C06",
"E 	c #525812",
"F 	c #8AB125",
"G 	c #E45105",
"H 	c #2E9130",
"I 	c #FCC113",
"J 	c #FBD147",
"K 	c #FAD658",
"L 	c #F6E1BE",
"M 	c #7CD348",
"N 	c #F4C04F",
"O 	c #FBC826",
"P 	c #FBD656",
"Q 	c #FCEBAB",
"R 	c #FBE284",
"S 	c #FCE9A2",
"T 	c #FDEEB7",
"U 	c #FBC622",
"V 	c #F99C0C",
"W 	c #35AE2C",
"X 	c #FCEDB2",
"Y 	c #FBCA2B",
"Z 	c #FCF5D6",
"` 	c #FCEBA9",
" .	c #FCF3CC",
"..	c #FE9404",
"+.	c #EEB627",
"@.	c #FCF8E6",
"#.	c #FBCE3A",
"$.	c #FBDE76",
"%.	c #FCF6DC",
"&.	c #FBF9E8",
"*.	c #FCF6DA",
"=.	c #4BB93B",
"-.	c #F1DCB1",
";.	c #FE8C04",
">.	c #F2CDA8",
",.	c #76CD46",
"'.	c #359F30",
").	c #FDF1C2",
"!.	c #3BA932",
"~.	c #319930",
"{.	c #307F38",
"].	c #FCF9E8",
"^.	c #FC7C07",
"/.	c #4BBD37",
"(.	c #FA970E",
"_.	c #FBDA69",
":.	c #E39351",
"<.	c #50BF39",
"[.	c #FC7808",
"}.	c #E87C2B",
"|.	c #62C73F",
"1.	c #F66B08",
"2.	c #F7A42A",
"3.	c #F86E08",
"4.	c #F26307",
"5.	c #FA7408",
"6.	c #E95606",
"7.	c #35A92C",
"8.	c #F05F07",
"9.	c #EEBE94",
"0.	c #F56708",
"a.	c #E14F04",
"b.	c #D84705",
"c.	c #CB3E04",
"d.	c #C53B05",
"e.	c #ED5B06",
"f.	c #D44404",
"g.	c #AD3C12",
"h.	c #47BB35",
"i.	c #B55B3D",
"j.	c #DC4B05",
"k.	c #BB3604",
"l.	c #B13405",
"m.	c #FA7607",
"n.	c #AA3305",
"o.	c #AB431F",
"p.	c #E8853E",
"q.	c #C79787",
"r.	c #31A42D",
"s.	c #4DBC3A",
"t.	c #F27E21",
"u.	c #EE9E32",
"v.	c #76CD47",
"w.	c #35803C",
"x.	c #EDB373",
"y.	c #3AA243",
"z.	c #58B83C",
"A.	c #EFB72E",
"B.	c #F19F2F",
"C.	c #EFD3A1",
"  .                                           +     .                                   @       +   ",
".   #     $               $ %     &       *   =   .   -     ;               $ =     &   @ @ >   =   ",
", #   '                   , ,     )   !   ~   {   ] ^   /   @ @             ( ]         ;   _ @ )   ",
":       '   <         [ } | '   : ) ) @ 1 [ : { 2 3     ) /   4         [ 5 * '   :       6 7 : ) 2 ",
", = , : $               8 # ,   %   9 0 a 0 0 b c d e f g h i j       {   8 k (   =         { !     ",
"    ! > l *       m     n   } o h a h p q i i r 0 s t u v w x x r r r     n   } o m y   z m {   A   ",
"            $         &     i i h i 9 h i a h i B C D E F G i B B B B r x                       ) H ",
"                #     $   i i p h I h h h q J i B K q h h q h h h i B B r r L     $ $   M $ [   M ! ",
"        )             N i h i i i h h a O P Q R 0 S T U R K p K q h 0 B r r x V     $   7 W @ @ # , ",
"      [ ) #   =   , h h i B i i i h a O 0 p X Y 0 b Z `  .P 0 q h h i i B B r x ..        @ @ @ m ) ",
"          W @ @   +.B i B i a i i p q @.p 0 Y #.$.I %.&.*.a U &.h h i i i r x x ....+ ) =.= @ @ @ ) ",
"    # < { 2 { @ -.B B B B B i i i a I $.p K 0 b +.` &.R &.0 +.Y p B h I B r r x ..;.>.) )   ,.= + ! ",
"          '.@ @ B B B B B B i i q a a q i T X 0 *.0 0 @.&.).q p a Y i i B B r x ....;.) !.  ~.  > {.",
",   $   ) '.) r r B B i i i i i h 0 q h J a P Q q I c 0 ].#.0 h P i h i B B r x x x ..^.A     & /.{ ",
"$       = , (.r B B B i i i B i h a h Y 0 h a 0 I q h i _.#.q h i I r B B r x x x x ;.C :.<.    ! @ ",
"$ #         ..B B B i r i i 0 i a i h i q q h h 0 Y p I h q q h q h r B B r r ........;.[.      @ @ ",
"      *   ..r r B a B B B i i i i i q h i q a I q h q a i i h q i i i B B r x r ..x ;.[.^.}.|.$ + ) ",
";     * ^ ..x r i r i B i i B B B i i h h h q 0 I O U $.0 0 0 i B i r r B r x r ;.;.C ;.^.1.| $ $ $ ",
"  )     2...r r i r B B a i B i h i i i h h i U 0 h a i q h q i B B r i ;.r r x ..;.C ;.^.3.    ) ) ",
"m m   | ..x r r B r r B i B B B B i i i i h I h B h h h h h B h i B B i B r x x ;.;.;.C C 3.4.  M ) ",
"^ -   ) ;.x x r x r B B B B B B B i i B B B h i 0 0 a h i i U B B I i B ..r ......;.;.C C 5.6.  ^   ",
"7.)   [ ;.x r x r h r B r B B r B B i i i i i h i i i i i i B h B B B B r x x ....C 5.C C 5.8.  )   ",
"      C ;...x x x B r B B r r B r B B B B i r r i B i i I i i i q a r r x x ;.C ;.;.C C 5.5.6.9.  ^ ",
"  (   5.C ....r x r r x B r r B r r B x i B i B i i i h I h i B i r x r x r ....;.;.[.C [.3.G 6.    ",
"      1.C ;...r r r x B ..r r r r x B B B i B B B B B i i x i r r r r x r ;.x C C ;.C C [.0.G a.(   ",
"  .   4.C ......x x x x x r i x B r r r B B B r B B i B B B B B B B r ..x ....;.;.C [.C 3.0.6.b..   ",
".   - 4.C C ;.x ..r r x r x x x r r r B r r B r B B i B r B B r r x r C x ..;.;...^.^.[.[.0.6.c.%   ",
"( ^   6.5.;.;...x x x ..x ..B r x r r r x r B r r r B r r ;.r r r ....x x ....C C C C [.1.4.a.d.    ",
":     G 1.C ^.;.;...x r x x ..x r r r r x r ....x x B r r r x r r x ....;.C ;.;.;.^.[.5.1.e.f.g.  h.",
", = , f.1.5.;...;.....x x C x x r x x r ..r x x C C r ..r x r x x x x ;.;.;.^.C ;.[.5.5.4.G d.;     ",
"    ! i.G 1.C C ;...;.....x ;.x ..x x x x x r ......r C x ..x ..x x ..C ;.;.;.^.^.5.4.1.4.j.k.  {.H ",
"        f.4.5.C ;.....;.;.x x ..;.C ......x x x x ..r ..;.x ;.....;.;.C C C ^.^.3.5.4.8.6.f.l.  { { ",
"        c.6.1.1.;.;.;.;.;.....;.;.....;.C x x ..x x ..x ..x ..;...C C ;.[.^.^.[.m.0.1.6.b.k.n.) + $ ",
"    {   G f.8.5.^.^.^.C ;.;...;.;.;.;...C ;...C ..;.;...;...C ;.[.C C [.^.[.[.5.0.0.e.G c.n.    ^ ( ",
"  )   [   j.G 8.1.[.C C ^.;.C C ..;.;.;.;.C ^.;.C ;.C ;.;.;.C ;.C ^.C [.[.[.1.1.1.e.6.b.k.n.    @ @ ",
"          8.G G 1.5.5.C C [.^.;.;.C ;.C ;.;.5.;.5.C ^.C C C C C [.C C [.[.5.3.1.4.6.a.c.l.o.    ) ) ",
"    ^ 7.  2 6.G 6.4.1.[.5.[.[.C C C C C ;.^.[.^.C 5.^.C C ;.C C ^.^.[.m.m.0.m.e.e.G c.l.n.  ' = + ! ",
"    { @   7 p.4.G 6.e.1.5.5.^.^.C ^.C ^.C [.^.m.C C ^.^.C [.^.^.[.[.[.m.1.0.8.e.G j.d.l.q.  ) ) r.{.",
", @ $ @   [   1.8.a.e.0.0.3.5.5.[.3.^.C [.[.C [.[.5.^.[.5.^.[.[.[.m.m.1.1.0.6.e.j.c.k.c.{.{ ) + ! { ",
"! ) @ @ = ,   <.1.8.6.6.8.1.3.5.5.3.[.^.5.C ^.^.^.[.[.[.[.5.[.5.1.1.0.0.0.6.G j.f.c.f.~.'.s.) ) $ ) ",
"! #       ) ) ) /.5.4.e.e.4.1.1.3.[.5.[.3.^.[.[.^.5.^.5.5.5.5.5.1.1.0.8.6.6.j.j.c.j.    #       ) ) ",
"      |   # ) /.@ ! 1.1.4.e.4.0.1.3.3.[.3.5.5.5.[.5.5.1.1.5.1.1.1.0.8.e.G j.G G e.  #       ; ; . ) ",
"/.)   | #   ! @ @ @ ! t.5.5.0.4.1.3.m.1.3.[.3.3.5.3.3.1.3.3.1.1.0.4.e.6.6.6.4.4.        [ ) * ; $ $ ",
") )             @ { @ @   [.[.5.5.3.m.5.m.5.m.5.0.1.3.3.0.0.1.4.0.0.0.1.1.5.[.            ) )       ",
"m m   |     /.  !   ) /.    u.^.[.[.C 5.[.[.^.[.5.5.5.5.[.1.1.1.1.5.5.5.[.) ) >         { {     M ) ",
"# #     # m     ^ (   @   $ W ] 2.;.;.;...;.;.C ;.;.;.C C [.^.C C C ^.@   ) /.W ,   %   v.{ w.  #   ",
">   { >     ) < @ @ @ @ @ 6 8 7.      r x x r x x x ..x ..;.;.;.x.  @ @ ) ) n 1 <       $   ~       ",
"    ) ) { m ) y.( @ @ ! z./.; @ +     [ ,   . A.r x B.C.    m   % , { { /.z.; $   &       ,   &   # ",
"  ,   {         #   %           ^   <.2 $   $       ]           ) #   %           #   $ 2 $   $     ",
"          W         # (       =   % { >       ]             W   )     # ,       % ) %   | {   ) ,   "};
