/* XPM */
static char * E_xpm[] = {
"50 50 159 2",
"  	c #2D992D",
". 	c #86D84B",
"+ 	c #613C22",
"@ 	c #634126",
"# 	c #5F4128",
"$ 	c #573921",
"% 	c #65452A",
"& 	c #442B1B",
"* 	c #2C992C",
"= 	c #85D74B",
"- 	c #37B22C",
"; 	c #4FBF38",
"> 	c #3AA443",
", 	c #5D3F28",
"' 	c #5D3B22",
") 	c #896E4D",
"! 	c #896F4E",
"~ 	c #866B4B",
"{ 	c #7F6243",
"] 	c #856A49",
"^ 	c #836849",
"/ 	c #7D6342",
"( 	c #56321B",
"_ 	c #3B2514",
": 	c #3AA343",
"< 	c #87D84B",
"[ 	c #33A72E",
"} 	c #336644",
"| 	c #72CF45",
"1 	c #67482B",
"2 	c #8E7554",
"3 	c #876C4B",
"4 	c #8B714F",
"5 	c #886C4C",
"6 	c #7B603F",
"7 	c #7E6344",
"8 	c #755A3B",
"9 	c #6E5234",
"0 	c #5A3721",
"a 	c #326644",
"b 	c #336744",
"c 	c #59C33C",
"d 	c #3BB42E",
"e 	c #2C992D",
"f 	c #4BAE37",
"g 	c #34A92C",
"h 	c #30A12D",
"i 	c #5A351D",
"j 	c #897050",
"k 	c #907756",
"l 	c #8A704F",
"m 	c #69462C",
"n 	c #998162",
"o 	c #947D5D",
"p 	c #937B5B",
"q 	c #7A5F40",
"r 	c #4E2E18",
"s 	c #2F8935",
"t 	c #33A02F",
"u 	c #49B837",
"v 	c #7D6141",
"w 	c #9A8365",
"x 	c #795E3E",
"y 	c #7F6441",
"z 	c #8C7354",
"A 	c #876E50",
"B 	c #735738",
"C 	c #6C4D31",
"D 	c #372112",
"E 	c #2D962E",
"F 	c #58C33C",
"G 	c #77C34A",
"H 	c #38A531",
"I 	c #2F9D2D",
"J 	c #876D4D",
"K 	c #826646",
"L 	c #917859",
"M 	c #816645",
"N 	c #755837",
"O 	c #6B4B2D",
"P 	c #866A4A",
"Q 	c #48AD44",
"R 	c #3AA831",
"S 	c #347440",
"T 	c #896F4F",
"U 	c #886E50",
"V 	c #7F6544",
"W 	c #7F6545",
"X 	c #836A4C",
"Y 	c #715536",
"Z 	c #2E9130",
"` 	c #7CD348",
" .	c #806544",
"..	c #35AE2C",
"+.	c #82684B",
"@.	c #4BB93B",
"#.	c #76CD46",
"$.	c #359F30",
"%.	c #3BA932",
"&.	c #319930",
"*.	c #307F38",
"=.	c #391E0D",
"-.	c #4BBD37",
";.	c #5D391F",
">.	c #8A7662",
",.	c #887460",
"'.	c #3DA432",
").	c #50BF39",
"!.	c #796752",
"~.	c #7C6A55",
"{.	c #816E59",
"].	c #83715C",
"^.	c #8C7154",
"/.	c #8B7D6B",
"(.	c #715E49",
"_.	c #36B12C",
":.	c #715B45",
"<.	c #74624D",
"[.	c #766550",
"}.	c #967F60",
"|.	c #6C543D",
"1.	c #62C73F",
"2.	c #6C5A46",
"3.	c #7C6144",
"4.	c #6D5C49",
"5.	c #7C6140",
"6.	c #3CA432",
"7.	c #37A530",
"8.	c #532F19",
"9.	c #512C16",
"0.	c #492E0E",
"a.	c #36B32C",
"b.	c #37B12C",
"c.	c #624A35",
"d.	c #34803C",
"e.	c #35A92C",
"f.	c #4B2715",
"g.	c #43B235",
"h.	c #462C16",
"i.	c #73CF45",
"j.	c #897964",
"k.	c #47BB35",
"l.	c #684F39",
"m.	c #4F2A14",
"n.	c #7D6D5A",
"o.	c #351C0D",
"p.	c #695642",
"q.	c #857865",
"r.	c #351F11",
"s.	c #5E4027",
"t.	c #31A42D",
"u.	c #4DBC3A",
"v.	c #857664",
"w.	c #928574",
"x.	c #675340",
"y.	c #76CD47",
"z.	c #35803C",
"A.	c #66523F",
"B.	c #654F3C",
"  .                                     + @ + # # $ % % # # &                           *       =   ",
".   -     ;               ; >   , , ' , ) ) ! ~ { + ] ~ ^ ^ / ( $ $ _       ; :     <   * * [   :   ",
"} -   |                   } # 1 2 2 3 @ 4 4 4 5 6 + 5 5 3 3 7 ' 8 8 9 0 _   a b         c   d * e   ",
"f       |   g         h i ' j j 2 k l m n n o p l @ o o p p 3 ' q 8 q 8 9 r _ |   f       s t f e u ",
"} : } f ;             % v + k w w w k @ x x x 6 y + 6 6 6 6 x @ j z z A B + C D   :         E F     ",
"    F [ G H       I % J K m L x l M v @ v v N x 6 @ N 6 { 6 8 @ O C M 7 P @ C O _ I Q   R I E   S   ",
"            ;     % P T U + N x 3 V x @ v v 6 N 6 m x 6 v v x 1 O W q / 8 O X Y C D             e Z ",
"                - O 5 k N m 8 5 M V x O v v v v 6 m 6 v v y x O W / q q 8 O 7 W C _ ;   ` ; h   ` F ",
"        e       , q U x N @ x 5  . .v O q x q  .x m x y y y N O / x / q 8 C 6 / W C D   t ..* * - } ",
"      h e -   : C U x 8 N m K  . . .v O  . .q q 6 O y 6 6 6 y O { q x / 8 C 6 6 7 7 _     * * * I e ",
"          ..* , { U 8 8 N O  . . . .v O x q  .x y O y y y y 6 O / x { x x 9 x 6 q +.% D @.: * * * e ",
"    - g E u E m ~ 8 8 8 N O q  . . . .O q q q q 6 O y y y y y O / q 6 { x Y / x x { M _ e   #.: = F ",
"          $.* O X 8 8 8 N C  . . . .x O  .x x q y O K y y y N O q  .x q 8 Y x x 6 { W _ %.  &.  [ *.",
"}   ;   e $.e + 8 8 8 N N C  . .x O x 9 q q q  .6 O K y y y v C 8 m q q x Y 6 x x x B =.S     < -.E ",
";       : }   i ;.;.+ ;.+ + @ m C >.m C v x x v 6 O K y y v x m C ,.% + + + + + ' ;.i =.'.).    F * ",
"; -           ' !.~.{.{.{.].].].].].^.m x v x v y O K v v y x O /.{.{.{.{.~.~.~.~.!.(.=.-       * * ",
"      H   _.  ' :.:.<.[.[.~.~.~.{.!.{.{.m q q q q C K  .x x C }.~.~.~.!.<.<.<.<.:.:.|.=.e e 1.; = e ",
"c     H _.  ; ;.2.q <.3.[.!.~.~.{.{.(.+ q 8 8 q q O K x  .6 8 ' !.!.!.[.4.5.<.<.(.|.|.=.6.  7.; ; ; ",
"  e           ( 8.8.( ( ( ( ( ( + q ;.9 q q q q q C K  .q  .q + ' <.( ( ( 8.8.8.8.9.9.=.E       e e ",
"I I   7.    -.( @ @ @ @ @ ;.1 O m ;.O 9 q q 8 q q O ^  . .q q C % ( 1 1 1 1 1 1 1 % @ 0.E       ` e ",
"_.a.  e b.I   i N B B B 9 @ q 8 8 O 9 9 q q q q 6 O ] M q  .x O 8 c.6 8 8 9 N N N Y O & #.  d.  _.  ",
"e.e   h       i N Y B B 9 1 / q q 8 C 9 8 q q q x O ] 6  .x x O 5.8 6 6 q 9 B N Y N C f.).  g.  e   ",
"          I   i B B B 8 N C / q q 8 O 9 x q 8 q x C 3 6 v 6 x C 5.5.6 5.8 9 N |.Y |.9 h.  a   =   _.",
"  a           i B B B N 9 O q 8 q 8 O 9 x 8 8 q x C ~ 6 v v 8 Y 5.5.8 5.8 9 B N Y N 9 h.@.).  ;     ",
"          ..  ( B B B B Y O 5.8 q 8 8 C 8 q 8 x x C P q { 6 x Y / 8 x 8 8 9 B 9 B B C h.7.      a   ",
"  .           i Y B B B Y C / 8 8 8 B Y q 8 8 8 8 O ^ x x { x 9 / 8 8 6 8 9 Y Y 9 9 C h.        .   ",
".   a.  * F   ( Y B Y B Y O { 8 8 8 B C 8 8 N ' + + + % 6 6 x Y / 8 8 / 8 C B Y B 9 C h.    H Z >   ",
"a _.  i.*     ( B Y B B Y O / N 8 N B C 8 Y % j.j.j.j.{.@ x 8 9 / 8 x 8 8 9 9 Y 9 9 C & F   d       ",
"f       | e g ( Y B B Y Y 9 q 8 B B B C 8 Y + <.!.!.!.:.+ 6 x 9 q 8 8 8 B O 9 9 |.9 O & I s h f   k.",
"} : } f -.e   ( B Y Y B Y 9 8 B B B Y 9 8 Y , <.2.i <.2.+ N x 9 q 8 8 8 B O |.9 Y Y O &       c     ",
"    F [ G 7.  ( Y B Y B Y C q Y Y Y Y 9 8 9 i :.|.( 4.|.i N N 9 q 8 8 8 B % C 9 9 9 O 0.H I E   *.Z ",
"            ; 8.Y Y B Y Y C q Y B Y Y C N 9 ( |.|.|.|.l.( N N O / 8 8 8 N 1 9 9 9 C C 0.        E E ",
"              8.Y Y Y Y Y C x Y 9 % 9 C N B % m.9.9.9.( 1 8 B C 8 % 8 8 Y 1 9 9 9 C O 0.` ; I e = ; ",
"    E         9.;.i ;.;.' ;.' + % ].+ C 8 N 9 1 % i % O B N B O c.{.+ + + ;.i i 0 i ( =.7.-     _.a ",
"  e   h   ..  ( <.<.~.!.~.{.{.].].~.{.+ |.N N N 9 % 8 N B B Y 1 j.!.{.n.!.[.!.<.!.<.:.o.        * * ",
"          ..  ( p.:.:.(.(.[.[.!.!.[.n.n.@ Y |.N 9 % N N B B 1 q.[.<.[.(.<.4.:.<.4.p.C r.@.:     e e ",
"    _.e.  u   8.|.|.(.4.(.<.[.[.[.[.<.i 9 B B B 9 % N Y B N O ;.[.<.<.<.4.4.4.:.:.|.l.o.    | : = F ",
"    E *   t   9.8.9.9.m.8.9.8.9.0 :.8.% B B 9 B 9 1 N |.B Y 9 s.0 p.9.9.9.9.r m.9.9.9.o.%.  e e t.*.",
"} * ; *   h   9.;.@ @ @ @ i % m % ( % % B B Y Y 9 % Y Y Y 9 9 # % 8.@ @ @ s.@ @ + + ;.o.*.E e = F E ",
"F e * * : }   8.C 9 9 9 O ' 9 9 9 % C % B 9 Y Y 9 s.Y 9 9 Y 9 # Y m 8 8 Y @ O O C O % o.$.u.e e ; e ",
"F -       e e 8.9 9 9 9 O @ 9 9 Y l.9 % B Y 9 B 9 $ 9 9 9 9 9 # 8 8 8 8 9 % C C C C % r.-       e e ",
"      7.  - e 8.9 9 9 9 O @ 9 9 Y l.9 + Y Y Y Y 9 i 9 |.9 9 9 % 8 8 8 B B , C C C C % o.    c c . e ",
"-.e   7.-   F m.( i i ' ' ' , ' $ 0 $ $ ( ( ( 8.m.m.( ( i i $ i 0 0 0 0 i ( ( ( 8.r f.=.h e H c ; ; ",
"e e           8.<.2.<.<.<.<.<.<.[.[.[.[.[.[.!.n.[.$ n.n.~.!.[.<.[.[.<.<.[.(.(.(.4.(.p.=.  e e       ",
"I I   7.    -.$ q.n.v.v.q.q.q.q.n././././././.w.v.$ w.w.w./././.v.v.v.v.v.v.v.v.v.v.!.o.E E     ` e ",
"- -     - I   ( p.p.x.x.p.p.p.p.4.4.4.4.4.4.4.4.4.( [.4.4.4.4.4.4.4.2.p.2.p.x.x.x.x.c.o.y.E z.  -   ",
"[   E [     e r x.x.A.A.x.x.x.p.4.x.p.4.4.4.4.4.4.( [.2.4.4.4.2.4.2.2.p.x.x.B.B.B.B.c.o.;   g.      ",
"    e e E I e r B.x.A.A.p.p.p.p.x.p.4.p.4.4.4.4.4.( <.4.4.2.4.4.2.p.2.p.p.p.p.x.B.B.c.o.  }   <   - ",
"  }   E       8.B.B.A.p.p.p.p.p.2.2.2.2.2.2.2.4.4.( [.4.4.4.4.2.2.2.2.p.p.p.p.x.x.B.c.o.u ;   ;     ",
"          ..  f.m.9.m.9.m.m.m.m.m.m.m.m.r r 9.r 9.f.m.m.r m.9.9.r f.9.f.f.9.m.m.9.m.f.o.7.E   e }   "};
