/* XPM */
static char * P_xpm[] = {
"50 50 243 2",
"  	c #2D992D",
". 	c #86D84B",
"+ 	c #85D74B",
"@ 	c #2C992C",
"# 	c #37B22C",
"$ 	c #4FBF38",
"% 	c #3AA443",
"& 	c #87D84B",
"* 	c #38A531",
"= 	c #3AA343",
"- 	c #36B32C",
"; 	c #59C33C",
"> 	c #33A72E",
", 	c #336644",
"' 	c #72CF45",
") 	c #2C992D",
"! 	c #58C33C",
"~ 	c #43B235",
"{ 	c #2D962E",
"] 	c #336744",
"^ 	c #36B12C",
"/ 	c #73CF45",
"( 	c #326644",
"_ 	c #3BB42E",
": 	c #4BAE37",
"< 	c #34A92C",
"[ 	c #30A12D",
"} 	c #3DA432",
"| 	c #37A530",
"1 	c #2F8835",
"2 	c #49B837",
"3 	c #4BAE36",
"4 	c #32A52C",
"5 	c #3CA432",
"6 	c #2F8935",
"7 	c #33A02F",
"8 	c #308038",
"9 	c #37B12C",
"0 	c #77C34A",
"a 	c #2F9D2D",
"b 	c #2F8436",
"c 	c #3EA841",
"d 	c #8C908B",
"e 	c #3AA831",
"f 	c #979A77",
"g 	c #307F38",
"h 	c #48AD44",
"i 	c #347440",
"j 	c #7E8662",
"k 	c #9DA197",
"l 	c #99A67A",
"m 	c #A9A687",
"n 	c #B4B688",
"o 	c #A3AA7A",
"p 	c #2E9130",
"q 	c #7B7774",
"r 	c #B9B4A8",
"s 	c #ACA48C",
"t 	c #B5AA93",
"u 	c #968C73",
"v 	c #888767",
"w 	c #968878",
"x 	c #9C947C",
"y 	c #969283",
"z 	c #A9A598",
"A 	c #9B958B",
"B 	c #8A8373",
"C 	c #6D7453",
"D 	c #7CD348",
"E 	c #9B9896",
"F 	c #A89A97",
"G 	c #B4ABA2",
"H 	c #A08F85",
"I 	c #8B7D6B",
"J 	c #8D836A",
"K 	c #7B6C54",
"L 	c #645D4A",
"M 	c #5C5443",
"N 	c #6D5346",
"O 	c #75645A",
"P 	c #766C67",
"Q 	c #B9AB97",
"R 	c #65624C",
"S 	c #35AE2C",
"T 	c #B9B3B7",
"U 	c #C3BAB1",
"V 	c #7C725B",
"W 	c #756B5A",
"X 	c #54463B",
"Y 	c #5B4D3A",
"Z 	c #443F43",
"` 	c #5B524B",
" .	c #857C74",
"..	c #696746",
"+.	c #968D88",
"@.	c #857568",
"#.	c #736A54",
"$.	c #6A5C4B",
"%.	c #554A45",
"&.	c #473B36",
"*.	c #382D27",
"=.	c #61554C",
"-.	c #938D83",
";.	c #5E6451",
">.	c #4BB93B",
",.	c #A39C93",
"'.	c #896D61",
").	c #726553",
"!.	c #433525",
"~.	c #7B875A",
"{.	c #76CD46",
"].	c #359F30",
"^.	c #AEB895",
"/.	c #C7BBA8",
"(.	c #827564",
"_.	c #665C56",
":.	c #D1CDB3",
"<.	c #3BA932",
"[.	c #319930",
"}.	c #50BF39",
"|.	c #EAE5D0",
"1.	c #A68C72",
"2.	c #857D69",
"3.	c #686457",
"4.	c #4BBD37",
"5.	c #D6C9B4",
"6.	c #BBB498",
"7.	c #725A4D",
"8.	c #464334",
"9.	c #494629",
"0.	c #5A643B",
"a.	c #37351E",
"b.	c #2E2409",
"c.	c #82745C",
"d.	c #998D73",
"e.	c #A59988",
"f.	c #7D7463",
"g.	c #534D4B",
"h.	c #595754",
"i.	c #4D4A3B",
"j.	c #8A7C63",
"k.	c #645B43",
"l.	c #4E4A36",
"m.	c #161609",
"n.	c #5C533C",
"o.	c #A59A83",
"p.	c #9C9382",
"q.	c #6A6866",
"r.	c #898785",
"s.	c #635E62",
"t.	c #4D4947",
"u.	c #2B2514",
"v.	c #332B1C",
"w.	c #62C73F",
"x.	c #B4A38B",
"y.	c #534D3B",
"z.	c #9A8C6B",
"A.	c #AB9C84",
"B.	c #A8A7A6",
"C.	c #5D5A5A",
"D.	c #796C5A",
"E.	c #837A63",
"F.	c #767554",
"G.	c #958668",
"H.	c #7A766C",
"I.	c #A19FA2",
"J.	c #625542",
"K.	c #97966B",
"L.	c #9C9373",
"M.	c #A89879",
"N.	c #78694A",
"O.	c #34803C",
"P.	c #35A92C",
"Q.	c #AAA27D",
"R.	c #B1A185",
"S.	c #A3947C",
"T.	c #CDCABA",
"U.	c #D5CDC2",
"V.	c #6C624B",
"W.	c #63593A",
"X.	c #88785B",
"Y.	c #6B5C45",
"Z.	c #B5AB8A",
"`.	c #AD9779",
" +	c #3C3939",
".+	c #85865C",
"++	c #DBD4C7",
"@+	c #97938B",
"#+	c #241F18",
"$+	c #4E504E",
"%+	c #888677",
"&+	c #62543C",
"*+	c #523E26",
"=+	c #71754A",
"-+	c #A2A675",
";+	c #A48B6E",
">+	c #E6DED2",
",+	c #58553A",
"'+	c #55472C",
")+	c #5B4C34",
"!+	c #49391D",
"~+	c #8E705A",
"{+	c #4A3B29",
"]+	c #957E63",
"^+	c #52432D",
"/+	c #72644C",
"(+	c #554A34",
"_+	c #544533",
":+	c #47BB35",
"<+	c #D3BDA5",
"[+	c #E2DBC8",
"}+	c #3D423A",
"|+	c #3C3529",
"1+	c #C4B39B",
"2+	c #D3C2AB",
"3+	c #2C2822",
"4+	c #292918",
"5+	c #4C4533",
"6+	c #33352C",
"7+	c #8D965F",
"8+	c #B49D86",
"9+	c #ABB673",
"0+	c #A49B7C",
"a+	c #080B01",
"b+	c #6C6351",
"c+	c #C7B49A",
"d+	c #2C2C1C",
"e+	c #211D0E",
"f+	c #595645",
"g+	c #C4AE95",
"h+	c #31A42D",
"i+	c #D4C0A7",
"j+	c #353323",
"k+	c #B8AA8E",
"l+	c #3A3424",
"m+	c #433D2D",
"n+	c #4C432C",
"o+	c #262215",
"p+	c #A4A37B",
"q+	c #2B251C",
"r+	c #3D3B2A",
"s+	c #33291C",
"t+	c #332B23",
"  .                                           +     .                                   @       +   ",
".   #     $               $ %     &       *   =   .   -     ;               $ =     &   @ @ >   =   ",
", #   '                   , ,     )   !   ~   {   ] ^   /   @ @             ( ]         ;   _ @ )   ",
":       '   <         [ } | '   : ) ) @ 1 [ : { 2 3     ) /   4         [ 5 * '   :       6 7 : ) 2 ",
", = , : $               8 # ,   %           $ {   ( = ( : ! @ @       {   8 9 (   =         { !     ",
"    ! > 0 *       a     b   } c a d   e f { { g       ! < 0 > @   ) [     b   } c a h   e a {   i   ",
"            $         &           j d k l m n o m m m m m m m m f ) @ j &                       ) p ",
"                #     $         k q k r s t s u v u w x y y m z t A B C !         $ $   D $ [   D ! ",
"        )             , 8 & $   E F F G H I J K L M N O O P w F G Q B R C j & $     $   7 S @ @ # , ",
"      [ ) #   =   ,       # ,   T U F H B V W N M X Y Z ` O  . .w F z B ..j 9 ]           @ @ @ a ) ",
"          S @ @     $ # g     $ +.F F  .@.#.$.%.X &.*.&.%.=.O @.-. .w B ;.g     $   + ) >.= @ @ @ ) ",
"    # < { 2 { @ ^ { ^ )   #     F F ,.w '.$.).$.` !.*.Z =.%.=.P w P y m ~.  9     # ) ) )   {.= + ! ",
"          ].@ @               ^./.H I H I O O =.N Z Z ` =.%.=.(._.N ,.:.              ) <.  [.  > g ",
",   $   ) ].) ,     }.        :.|.F (.1.x 2.O X Z ` ` &.Z =._.(.3.).t :.  j       ,     i     & 4.{ ",
"$       = ,   ! $ ) ) #       l 5.6.w I w @.7.=.&._._.Z 8.%.L #.M $.v ..9.0.        #   } }.    ! @ ",
"$ #             $   ) ) {   ..a.b.c.u d.e.f.%.Z g.P P h.%.i.i.M j.k.l.m.m.~.          ) #       @ @ ",
"      *   ^   $ ) 4.  +     6.n.b.u o.p.f.3.` h.q.d r.q.s.t.Z g.7.7.7.u.v.v         #   ) ) w.$ + ) ",
";     * ^   $   ) @ ! 4.{ # x.'.x.6.x w B _.h.q q.+.E r.q.s.t.%.O N I O y.C #           5   | $ $ $ ",
"  )             )   @ @   v z.A.x.o.u p.H q._.r.B.T T d q s.C._.7.O D.D.E.F.) {         {       ) ) ",
"a a   |     4.  $     !   G.d.Q o.e.o.y A H.q E B.T T I.E r.P q.P @.J.M E.f.~.C         {       D ) ",
"^ -   ) 9 a     ^ (     K.L.M.x.t t Q z U F I.I.I.I.T I.B.I.d E p.(.#.D.R N.K...,   =   {.  O.  ^   ",
"P.)   [       P.        K.Q.R.S.S.e./.T.U.G +.E I.I.r.d r.q q +.A H.W f.V.W.X.Y.<       }.  ~   )   ",
"          a   = ]     $ f Z.R.`.x H /.U.F q.g.q s.q.s.q.s. + +Z p.B L Y.#.W.W.N.W..+      (   +   ^ ",
"  (             9   o K.L.R.1.1.w H U ++@+t.#+$+s.s.$+$+Z #+#+s.k %+W k.&+&+W.W.*+=+  }.>.}.  $     ",
"          S         -+.+;+M.;+z.I p.U >++._.q.r.s.Z Z $+s.$+$+s.k %+,+y.'+)+'+'+9.!+F.) |       (   ",
"  .                 G.F.X.G.X.~+K @.Q >+,.P q E r.Z Z C.q s.C.s.k %+,+l.*+9.*+'+)+{+n.)         .   ",
".   -   @ !         ~+N.X.]+]+G.O (.t >+G q %+E r.s.$+s.q P s.s.B.%+y.9.!+!+!+^+'+^+9.)     * p %   ",
"( ^   / @         G./+N ~+c.N.N.]+x r >+U -.r.d s.s.C.$+q.q q  .r y n.(+*+!+!+*+!._+9.l.!   _       ",
":       ' ) <   K.c.)+~+~+;+;+;+o.t T.>+T.z E y q.;.$+$+C. . . .r -.M n.'+'+*+*+!.!.{+_+a 6 [ :   :+",
", = , : 4.)     -+c.W.~+z.`.-+Q.Q <+[+[+U.G k r.3.$+}+t.s.-.r.+.z y V.$.W.&+^+*+*+*.|+y.      ;     ",
"    ! > 0 |     .+Y.N '.;+`.Q.Q.1+2+[+[+++B.z r.q. +3+t.P y -.,.F z X.c.N.W.&+_+X |+!.y.* a {   g p ",
"            $   G.N.'.;+1.1.L.z.6./.5.[+[+G z d H.}+4+h.q -.%+z z r f G.K Y.&+Y *+&.l.5+9.      { { ",
"              f z.~+~+]+;+~+G.`.Z.t 5.|.[+z B.B.r.;.6+q.d E @+@+Q y f v E.K K Y.)+*+^+'+9.$ a ) + $ ",
"    {         L.X.G.]+]+]+]+7+;+Z.s 6.[+T.U k k d ;.$+d E E @+A z y 2.f.k.$.Y.Y.&+_+&+W.'+9...  ^ ( ",
"  )   [   S   K.z.;+`.;+;+.+;+`.m s 6.[+T.r k k d ;.}+q.q j H.%+%+2.V f.J.&+&+&+Y.&+&+..W.,+=+  @ @ ",
"          S   f Q.8+8+`.`.;+;+9+0+f /.r ^.q ;.$+}+3+a+m.4+6+i.;.R L C b+/+(+)+&+/+/+V.W...W.V   ) ) ",
"    ^ P.  2 n Q.`.c+c+`.`.`.;+G.0+L.s p.y ;.d+a+a+a+a+a+a+e+}+5+R f+V.M k.^+Y Y.V.X.v #.,+l...= + ! ",
"    { @   7 n Z.8+c+<+c+g+8+;+X.J S.s z f %+8.6+3+6+d+4+a.}+0.l.R C R R Y n.Y /+c.j.J j.#.'+,+) h+g ",
", @ $ @   [ n n g+c+i+5.5.g+0+G.K d.z p.%+%+f+f+}+}+4+4+}+}+,+9.i.3.b+R y.M J.V u u G.J X.k.W.+ ! { ",
"! ) @ @ = , R.Z.g+i+5.i+i+c+m z.J x s F.H.W 8.d+d+4+4+4+a.b.}+9.j+y.R 5+Y X ).I w A.p.j.C &+n.) $ ) ",
"! #       ) Q.6.g+g+2+2+2+c+k+A.S.t @.L #.f+8.j+a.a.d+d+d+d+l+m+a.l+y.y.5+L f.I B o.o.d.E.n.'+..) ) ",
"      |   # Q.R.M.g+2+2+2+/.g+k+Q x /+V.L y.n+|+a.d+4+o+u.4+a.|+j+j+m+i.y.=.D.2.I u J E.c.&+n+,+. ) ",
"4.)   | # p+0+s `.c+2+/.1+1+6.k+o.c.K I b+l.n+u.a.4+e+e+o+u.d+j+|+l+|+l.M M L W O f.D.)./+n.n+9.$ $ ",
") )       M.8+k+Q /./.k+s x.x.S.I c.E.V Y 5+i.a.v.o+e+e+o+o+q+q+6+r+l+m+M n.n.L $.D.D./+J.(+n+'+..  ",
"a a   | f `.x.g+x.t s x S.R.S.G.K E.c.k._+n+!.v.d+u.e+#+q+q+#+q+o+j+l+|+l.M M L L W V ).J._+_+)+'+,+",
"# #     R.0+x.k+8+o.x f o.A.L.j.j.c.#.n.Y _+u.u.s+u.u.q+3+3+3+q+o+j+|+|+8.%.f+L b+).W ).Y.&+)+_+&+7.",
">   { > s 8+8+8+x.e.x x o.S.z.]+d.V Y.(+_+n+v.{+s+#+q+s+3+3+3+t+t+|+m+m+&.y.M y.L L b+).$.J._+*+*+&+",
"    ) 0+s 8+8+8+s o.L.u u G.G.G.K Y.).J._+(+!.!.s+s+s+t+t+3+t+*.|+v.|+5+8.y.M M y.Y $.O $.Y *+{+_+Y ",
"  , f L.M.k+c+g+A.w o.G.j.j.J c.V.#.V...J.(+_+!.!.v.l+*.s+q+t+v.j+r+r+8.j+l.y.y.L M b+W n.Y _+_+_+X ",
"  0+0+0+S.R.g+g+A.d.S.J E.E.X.K V.N.V.V.&+(+X {+{+!.!.m+*.t+|+t+j+r+r+m+j+l.y.(+V.y.b+).Y Y (+5+_+_+"};
