/* XPM */
static char * P2_xpm[] = {
"50 50 243 2",
"  	c #2D992D",
". 	c #85D74B",
"+ 	c #2C992C",
"@ 	c #86D84B",
"# 	c #3AA343",
"$ 	c #33A72E",
"% 	c #87D84B",
"& 	c #4FBF38",
"* 	c #59C33C",
"= 	c #36B32C",
"- 	c #38A531",
"; 	c #3AA443",
"> 	c #37B22C",
", 	c #2C992D",
"' 	c #3BB42E",
") 	c #336744",
"! 	c #326644",
"~ 	c #73CF45",
"{ 	c #36B12C",
"] 	c #2D962E",
"^ 	c #43B235",
"/ 	c #58C33C",
"( 	c #336644",
"_ 	c #72CF45",
": 	c #49B837",
"< 	c #4BAE37",
"[ 	c #33A02F",
"} 	c #2F8935",
"| 	c #3CA432",
"1 	c #30A12D",
"2 	c #32A52C",
"3 	c #4BAE36",
"4 	c #2F8835",
"5 	c #37A530",
"6 	c #3DA432",
"7 	c #34A92C",
"8 	c #37B12C",
"9 	c #308038",
"0 	c #347440",
"a 	c #2F9D2D",
"b 	c #3AA831",
"c 	c #48AD44",
"d 	c #3EA841",
"e 	c #2F8436",
"f 	c #77C34A",
"g 	c #307F38",
"h 	c #979A77",
"i 	c #8C908B",
"j 	c #2E9130",
"k 	c #7E8662",
"l 	c #A9A687",
"m 	c #A3AA7A",
"n 	c #B4B688",
"o 	c #99A67A",
"p 	c #9DA197",
"q 	c #7CD348",
"r 	c #6D7453",
"s 	c #8A8373",
"t 	c #9B958B",
"u 	c #B5AA93",
"v 	c #A9A598",
"w 	c #969283",
"x 	c #9C947C",
"y 	c #968878",
"z 	c #968C73",
"A 	c #888767",
"B 	c #ACA48C",
"C 	c #B9B4A8",
"D 	c #7B7774",
"E 	c #35AE2C",
"F 	c #65624C",
"G 	c #B9AB97",
"H 	c #B4ABA2",
"I 	c #A89A97",
"J 	c #766C67",
"K 	c #75645A",
"L 	c #6D5346",
"M 	c #5C5443",
"N 	c #645D4A",
"O 	c #7B6C54",
"P 	c #8D836A",
"Q 	c #8B7D6B",
"R 	c #A08F85",
"S 	c #9B9896",
"T 	c #696746",
"U 	c #857C74",
"V 	c #5B524B",
"W 	c #443F43",
"X 	c #5B4D3A",
"Y 	c #54463B",
"Z 	c #756B5A",
"` 	c #7C725B",
" .	c #C3BAB1",
"..	c #B9B3B7",
"+.	c #4BB93B",
"@.	c #5E6451",
"#.	c #938D83",
"$.	c #857568",
"%.	c #61554C",
"&.	c #554A45",
"*.	c #473B36",
"=.	c #382D27",
"-.	c #6A5C4B",
";.	c #736A54",
">.	c #968D88",
",.	c #76CD46",
"'.	c #7B875A",
").	c #433525",
"!.	c #726553",
"~.	c #896D61",
"{.	c #A39C93",
"].	c #319930",
"^.	c #3BA932",
"/.	c #D1CDB3",
"(.	c #665C56",
"_.	c #827564",
":.	c #C7BBA8",
"<.	c #AEB895",
"[.	c #359F30",
"}.	c #4BBD37",
"|.	c #686457",
"1.	c #857D69",
"2.	c #A68C72",
"3.	c #EAE5D0",
"4.	c #50BF39",
"5.	c #5A643B",
"6.	c #494629",
"7.	c #464334",
"8.	c #725A4D",
"9.	c #BBB498",
"0.	c #D6C9B4",
"a.	c #161609",
"b.	c #4E4A36",
"c.	c #645B43",
"d.	c #8A7C63",
"e.	c #4D4A3B",
"f.	c #595754",
"g.	c #534D4B",
"h.	c #7D7463",
"i.	c #A59988",
"j.	c #998D73",
"k.	c #82745C",
"l.	c #2E2409",
"m.	c #37351E",
"n.	c #62C73F",
"o.	c #332B1C",
"p.	c #2B2514",
"q.	c #4D4947",
"r.	c #635E62",
"s.	c #6A6866",
"t.	c #898785",
"u.	c #9C9382",
"v.	c #A59A83",
"w.	c #5C533C",
"x.	c #534D3B",
"y.	c #B4A38B",
"z.	c #767554",
"A.	c #837A63",
"B.	c #796C5A",
"C.	c #5D5A5A",
"D.	c #A8A7A6",
"E.	c #AB9C84",
"F.	c #9A8C6B",
"G.	c #625542",
"H.	c #A19FA2",
"I.	c #7A766C",
"J.	c #958668",
"K.	c #34803C",
"L.	c #97966B",
"M.	c #78694A",
"N.	c #A89879",
"O.	c #9C9373",
"P.	c #6B5C45",
"Q.	c #88785B",
"R.	c #63593A",
"S.	c #6C624B",
"T.	c #D5CDC2",
"U.	c #CDCABA",
"V.	c #A3947C",
"W.	c #B1A185",
"X.	c #AAA27D",
"Y.	c #35A92C",
"Z.	c #85865C",
"`.	c #3C3939",
" +	c #AD9779",
".+	c #B5AB8A",
"++	c #71754A",
"@+	c #523E26",
"#+	c #62543C",
"$+	c #888677",
"%+	c #241F18",
"&+	c #4E504E",
"*+	c #97938B",
"=+	c #DBD4C7",
"-+	c #49391D",
";+	c #55472C",
">+	c #5B4C34",
",+	c #58553A",
"'+	c #E6DED2",
")+	c #A48B6E",
"!+	c #A2A675",
"~+	c #4A3B29",
"{+	c #8E705A",
"]+	c #52432D",
"^+	c #957E63",
"/+	c #544533",
"(+	c #554A34",
"_+	c #72644C",
":+	c #47BB35",
"<+	c #3C3529",
"[+	c #3D423A",
"}+	c #E2DBC8",
"|+	c #D3BDA5",
"1+	c #2C2822",
"2+	c #D3C2AB",
"3+	c #C4B39B",
"4+	c #4C4533",
"5+	c #292918",
"6+	c #33352C",
"7+	c #8D965F",
"8+	c #6C6351",
"9+	c #080B01",
"0+	c #A49B7C",
"a+	c #ABB673",
"b+	c #B49D86",
"c+	c #595645",
"d+	c #211D0E",
"e+	c #2C2C1C",
"f+	c #C7B49A",
"g+	c #31A42D",
"h+	c #C4AE95",
"i+	c #D4C0A7",
"j+	c #353323",
"k+	c #3A3424",
"l+	c #433D2D",
"m+	c #B8AA8E",
"n+	c #4C432C",
"o+	c #262215",
"p+	c #A4A37B",
"q+	c #3D3B2A",
"r+	c #2B251C",
"s+	c #33291C",
"t+	c #332B23",
"  .       +                                   @     .                                           @   ",
"  #   $ + +   %     # &               *     =   @   #   -       %     ; &               &     >   @ ",
"  , + '   *         ) !             + +   ~   { )   ]   ^   /   ,     ( (                   _   > ( ",
": , < [ }       <   _ - | 1         2   ~ ,     3 : ] < 1 4 + , , <   _ 5 6 1         7   _       < ",
"    / ]         #   ! 8 9   ]       + + / < ! # !   ] &           ;   ( > 9               & < ( # ( ",
"  0   ] a b   c a d 6   e     1 ,   + $ f 7 /       g ] ] h b   i a d 6   e     a       - f $ /     ",
"j ,                       % k + , h l l l l l l l l m n l o p i k           %         &             ",
"/ q   1 & q   & &         / r s t u v l w w x y z A z B u B C p D p         &     >                 ",
"( > + + E [   &     & % k r F s G H I y J K K L M N O P Q R H I I S   & % 9 (             ,         ",
", a + + +           ) 8 k T s v I y U U K V W X Y M L Z ` s R I  ...  ( >       (   #   > , 1       ",
", + + + # +., .   &     g @.s y U #.$.K %.&.*.=.*.Y &.-.;.$.U I I >.&     g > &     + + E           ",
"/ . # ,.  , , , >     8   '.l w J y J %.&.%.W =.).V -.!.-.~.y {.I I     >   , { ] { + ] : ] 7 >     ",
"g $   ].  ^.,               /.{.L (._.%.&.%.V W W L %.K K Q R Q R :.<.              + + [.          ",
"] }.%     0     (       k   /.u !.|._.(.%.W *.V V W Y K 1.x 2._.I 3./.        4.    ( , [.,   &   ( ",
"+ /     4.6   >         5.6.T A -.M ;.N &.7.W (.(.*.%.8.$.y Q y 9.0.o       > , , & /   ( #       & ",
"+ +       > ,           '.a.a.b.c.d.M e.e.&.f.J J g.W &.h.i.j.z k.l.m.T   ] , ,   &             > & ",
", . & n., ,   >         A o.p.8.8.8.g.W q.r.s.t.i s.f.V |.h.u.v.z l.w.9.    .   }., &   {   -       ",
"& & & 5   |           > r x.K Q L K &.q.r.s.t.S >.s.D f.(.s y x 9.y.~.y.> ] }./ + ,   &   { -     * ",
", ,       ]         ] , z.A.B.B.K 8.(.C.r.D i ....D.t.(.s.R u.z v.y.E.F.A   + +   ,             ,   ",
", q       ]         r '.h.A.M G.$.J s.J t.S H.....D.S D I.t w v.i.v.G j.J.  /     &   }.    5   a a ",
"  {   K.  ,.  #   ( T L.M.F B.;._.u.S i H.D.H...H.H.H.H.I  .v G u u y.N.O.L.    ! {     a 8 ,   = { ",
"  ,   ^   4.      7 P.Q.R.S.h.Z I.t >.D D t.i t.H.H.S >.H T.U.:.i.V.V.W.X.L.        Y.      1   , Y.",
"{   .   !       Z.R.M.R.R.;.P.N s u.W `.`.r.s.r.s.r.D g.s.I T.:.R x  +W..+h &     ) #   a           ",
"    &   4.+.4.  ++@+R.R.#+#+c.Z $+p r.%+%+W &+&+r.r.&+%+q.*+=+ .R y 2.2.W.O.L.m   8             !   ",
"  !       5 , z.-+6.;+;+>+;+x.,+$+p r.&+&+r.&+W W r.t.s.(.>.'+ .u.Q F.)+N.)+Z.!+        E           ",
"  @         , w.~+>+;+@+6.@+b.,+$+p r.C.r.D C.W W t.S D J {.'+G $.O {+Q.J.Q.z.J.                @   ",
"  ; j -     , 6.]+;+]+-+-+-+6.x.$+D.r.r.J D r.&+r.t.S $+D H '+u _.K J.^+^+Q.M.{+        / +   =   @ ",
"      '   / b.6./+).@+-+-+@+(+w.w C U D D s.&+C.r.r.i t.#. .'+C x ^+M.M.k.{+L _+J.        + ~   { ! ",
":+  < 1 } a /+~+).).@+@+;+;+w.M #.C U U U C.&+&+@.s.w S v U.'+U.u v.)+)+)+{+{+>+k.L.  7 , _       < ",
"    *       x.<+=.@+@+]+#+R.-.S.w v >.t.#.r.q.[+&+|.t.p H T.}+}+|+G X.!+ +F.{+R.k.!+    , }.< ( # ( ",
"j g   ] a - x.).<+Y /+#+R.M.k.Q.v I {.#.w J q.1+`.s.t.v D.=+}+}+2+3+X.X. +)+~.L P.Z.    5 f $ /     ",
"] ]       6.4+b.*.@+X #+P.O J.h C v v $+#.D f.5+[+I.i v H }+}+0.:.9.F.O.2.2.)+~.M.J.  &             ",
"& . , a & 6.;+]+@+>+P.O O A.A h w G *+*+S i s.6+@.t.D.D.v }+3.0.u .+ +J.{+)+^+{+{+F.h               ",
"! {   T 6.;+R.#+/+#+P.P.-.c.h.1.w v t *+S S i &+@.i p p  .U.}+9.B .+)+7+^+^+^+^+J.Q.O.        ]     ",
"+ +   ++,+R.T #+#+P.#+#+#+G.h.` 1.$+$+I.k D s.[+@.i p p C U.}+9.B l  +)+Z.)+)+ +)+F.L.  E   1   ,   ",
", ,   ` R.T R.S._+_+#+>+(+_+8+r N F @.e.6+5+a.9+1+[+&+@.D <.C :.h 0+a+)+)+ + +b+b+X.h   E           ",
"/ . # T b.,+;.A Q.S.P.X ]+c.M S.c+F 4+[+d+9+9+9+9+9+9+e+@.w u.B O.0+J.)+ + + +f+f+ +X.n :   Y.{     ",
"g g+, ,+;+;.d.P d.k._+X w.X F F r F b.5.[+m.5+e+6+1+6+7.$+h v B V.P Q.)+b+h+f+|+f+b+.+n [   + ]     ",
"] / . R.c.Q.P J.z z ` G.M x.F 8+|.e.6.,+[+[+5+5+[+[+c+c+$+$+u.v j.O J.0+h+0.0.i+f+h+n n 1   + & + ( ",
", & , w.#+r d.u.E.y Q !.Y X 4+F x.j+6.[+l.m.5+5+5+e+e+7.Z I.z.B x P F.l f+i+i+0.i+h+.+W.( # + + , / ",
", , T ;+w.A.j.v.v.s Q h.N 4+x.x.k+m.l+k+e+e+e+e+m.m.j+7.c+;.N $.u V.E.m+f+2+2+2+h+h+9.X.,       > / ",
", @ ,+n+#+k.A.P z Q 1.B.%.x.e.l+j+j+<+m.5+p.o+5+e+m.<+n+x.N S._+x G m+h+:.2+2+2+h+N.W.X.>   5       ",
"& & 6.n+w._+!.B.h.K Z N M M b.<+k+<+j+e+p.o+d+d+5+m.p.n+b.8+Q O k.v.m+9.3+3+:.2+f+ +B 0+p+> 5   , }.",
"  T ;+n+(+G._+B.B.-.N w.w.M l+k+q+6+r+r+o+o+d+d+o+o.m.e.4+X ` A.k.Q V.y.y.B m+:.:.G m+b+N.      , , ",
",+;+>+/+/+G.!.` Z N N M M b.<+k+j+o+r+%+r+r+%+d+p.e+o.).n+/+c.k.A.O J.V.W.V.x B u y.h+y. +h 5   a a ",
"8.#+/+>+#+P.!.Z !.8+N c+&.7.<+<+j+o+r+1+1+1+r+p.p.s+p.p./+X w.;.k.d.d.O.E.v.h x v.b+m+y.0+W.    > > ",
"#+@+@+/+G.-.!.8+N N x.M x.*.l+l+<+t+t+1+1+1+s+r+%+s+~+o.n+/+(+P.` j.^+F.V.v.x x i.y.b+b+b+B $ ]   $ ",
"X /+~+@+X -.K -.X x.M M x.7.4+<+o.<+=.t+1+t+t+s+s+s+).).(+/+G.!.P.O J.J.J.z z O.v.B b+b+b+B 0+,     ",
"Y /+/+/+X w.Z 8+M N x.x.b.j+7.q+q+j+o.t+r+s+=.k+o.).)./+(+G.T S.;.S.k.P d.d.J.v.y E.h+f+m+N.O.h (   ",
"/+/+4+(+X X !.8+x.S.(+x.b.j+l+q+q+j+t+<+t+=.l+).).~+~+Y (+#+S.S.M.S.O Q.A.A.P V.j.E.h+h+W.V.0+0+0+  "};
