/* XPM */
static char *d388ab2b3ae44c8e810d23e379c702c5goZvmDEHIX8BXvmh[] = {
/* columns rows colors chars-per-pixel */
"50 50 232 2 ",
"   c #2E3417",
".  c #3A3A33",
"X  c #3A3B2C",
"o  c #433D37",
"O  c #3E432D",
"+  c #42462C",
"@  c #48532A",
"#  c #545E2F",
"$  c #494E34",
"%  c #44453A",
"&  c #4B4C3B",
"*  c #464837",
"=  c #4D533B",
"-  c #4C5335",
";  c #52553C",
":  c #545B3A",
">  c #545B37",
",  c #504D3C",
"<  c #5B643B",
"1  c #586435",
"2  c #61693C",
"3  c #4C4C43",
"4  c #4C4A45",
"5  c #524E4B",
"6  c #534C46",
"7  c #4D5145",
"8  c #535445",
"9  c #555944",
"0  c #595C44",
"q  c #53544C",
"w  c #59564D",
"e  c #565A4A",
"r  c #5B5C4C",
"t  c #585742",
"y  c #555453",
"u  c #5A5652",
"i  c #5D5C53",
"p  c #5D5C5A",
"a  c #5F5659",
"s  c #625D4F",
"d  c #625D55",
"f  c #635D5B",
"g  c #5D6343",
"h  c #5E614C",
"j  c #5F6946",
"k  c #5E6154",
"l  c #5F605A",
"z  c #61654C",
"x  c #666A4C",
"c  c #696D4E",
"v  c #616844",
"b  c #6B754C",
"n  c #687247",
"m  c #626354",
"M  c #696C54",
"N  c #64635B",
"B  c #69655B",
"V  c #66695B",
"C  c #6B6C5D",
"Z  c #656853",
"A  c #716E5C",
"S  c #6E725B",
"D  c #6C7255",
"F  c #717455",
"G  c #71745B",
"H  c #747B59",
"J  c #717A4F",
"K  c #635D60",
"L  c #666561",
"P  c #6A6564",
"I  c #6C6C63",
"U  c #6F6E69",
"Y  c #716C65",
"T  c #746E6B",
"R  c #6E7163",
"E  c #6E7069",
"W  c #737465",
"Q  c #7A7D64",
"!  c #74736B",
"~  c #7A756C",
"^  c #76796D",
"/  c #7C7B6D",
"(  c #757864",
")  c #767372",
"_  c #7B7472",
"`  c #7C7B73",
"'  c #7E7C7A",
"]  c #7B7879",
"[  c #827A6F",
"{  c #817D73",
"}  c #837D7B",
"|  c #887F78",
" . c #7B865E",
".. c #7E816C",
"X. c #7C8164",
"o. c #7F8272",
"O. c #82846D",
"+. c #838969",
"@. c #838474",
"#. c #858976",
"$. c #83837A",
"%. c #8A8C7C",
"&. c #898879",
"*. c #8C9179",
"=. c #92937C",
"-. c #959A7C",
";. c #939A74",
":. c #88926B",
">. c #9BA379",
",. c #8A8583",
"<. c #8C8C83",
"1. c #8E8B89",
"2. c #878681",
"3. c #928C88",
"4. c #8F9184",
"5. c #8E9188",
"6. c #949585",
"7. c #9A9D86",
"8. c #94948C",
"9. c #99958C",
"0. c #97998B",
"q. c #9B9C8C",
"w. c #969B85",
"e. c #959491",
"r. c #989591",
"t. c #9C9C93",
"y. c #9E9D9A",
"u. c #A29D98",
"i. c #9DA482",
"p. c #9EA38B",
"a. c #9EA294",
"s. c #9FA29C",
"d. c #A5AB8B",
"f. c #A1A48B",
"g. c #A2A393",
"h. c #A4A49C",
"j. c #A9A59C",
"k. c #A6A99C",
"l. c #ABAC9B",
"z. c #A7AA93",
"x. c #ADB19B",
"c. c #ABB296",
"v. c #B4BA9B",
"b. c #ACB28F",
"n. c #A6A4A2",
"m. c #ACACA3",
"M. c #ADACA9",
"N. c #A9A5A1",
"B. c #B1ACA5",
"V. c #B2AEAB",
"C. c #AEB1A3",
"Z. c #AFB0A8",
"A. c #B3B4A4",
"S. c #B6BAA3",
"D. c #BABDA5",
"F. c #B4B4AB",
"G. c #B9B5AD",
"H. c #B7B9AA",
"J. c #BABBAC",
"K. c #B6B4B2",
"L. c #BBB6B3",
"P. c #BCBCB3",
"I. c #BEBCBA",
"U. c #BDB7B9",
"Y. c #C2BEB6",
"T. c #C2BDBB",
"R. c #C7BBB9",
"E. c #BCC49C",
"W. c #BDC1AD",
"Q. c #BEC6A6",
"!. c #BEC1B5",
"~. c #C3C8AB",
"^. c #C3C3B5",
"/. c #C5CAB4",
"(. c #CACCB5",
"). c #C5C3BB",
"_. c #C9C5BC",
"`. c #CBCBBC",
"'. c #C8C7B9",
"]. c #D1CCBD",
"[. c #CCD2B5",
"{. c #CDD2BC",
"}. c #CFD9B7",
"|. c #D2D3BD",
" X c #D4D9BC",
".X c #D4DBB7",
"XX c #CBD3AE",
"oX c #DDE8BE",
"OX c #C7C3C4",
"+X c #CBC6C3",
"@X c #CCCBC3",
"#X c #CEC9C9",
"$X c #D2CCC5",
"%X c #D4CDCA",
"&X c #D9CECD",
"*X c #D1C6C4",
"=X c #CED1C3",
"-X c #D3D3C4",
";X c #D8D5C5",
":X c #D6DAC4",
">X c #DADBC6",
",X c #D5D3CB",
"<X c #D9D4CD",
"1X c #D7D9CA",
"2X c #DBDBCD",
"3X c #D3CDD3",
"4X c #D5D3D2",
"5X c #DBD5D2",
"6X c #DCDBD3",
"7X c #DAD5D9",
"8X c #DDDAD9",
"9X c #E0DCCD",
"0X c #E0D6CF",
"qX c #E2DCD5",
"wX c #E2DDDA",
"eX c #E1D4D3",
"rX c #DDE3C4",
"tX c #DEE1CE",
"yX c #DEE1D1",
"uX c #DFE0D8",
"iX c #E2E6CB",
"pX c #E2E3D3",
"aX c #E4E3DB",
"sX c #E7EADB",
"dX c #EAEADC",
"fX c #E8E6D8",
"gX c #EFF5D2",
"hX c #DFDFE1",
"jX c #E6E2E3",
"kX c #ECEBE2",
"lX c #EBE4E2",
"zX c #F6F2E9",
/* pixels */
"! !.!.J.=X/.!.A.A./ X u.`.+XT.$X).}.v.- n >.>.~.+.I U.I.OX+XR.].L.M.] . s.@XW.~.`.W.!.!.O R k.k.!.<.",
"` ,XkXyX2X=X:X-X-Xg.w F.aXkX5X8X-XpXd.> b.gXoXiX6.$.4XjXjXwX;X&X8X5Xn.5 C.uXsXsXtXtXyX}.Z a.uXyX6Xs.",
"^ F.@X=X=X1X2X-X2XH.Y j.).$XOX+X].A.X.< H E.XX[.*.) K.OX&X*X$X0X5X,XB.B a.P./.^.x.p.*.o.V C.2X=X1Xs.",
"7 e k V R W W M W C * i d f f I w + + H 1  .-.p.e 3 l P T ~ [ ~ Y Y Y 6 V z Z Z h g 7 g h #.k.`.o.L ",
"0.5.0.0.o.r 8 C 6.l.l.G.B.M.j.M.9.@.+ S g : + $ o.5.5.1.,.3.T o ~ =.u.j.G.z.l.l.g.p...h C M h i 7 E ",
"1X=X2XyX^.4.W 0.`.1X5X6XqXwX5X8X,XG.#.|.[.[.-.O H.kX8XuXwXlXR.[ 9.;XfX0X9X9XdX9XrX1Xl./ ).2XP.$.L s.",
"2X=X1X6XpXH./ 4.1X6X<X@X,X6X5XqX6Xl./ (.(.:X(.9 p.1X).4X5XeXR._ ,.&X0X$X].$X&X$X$X2XY.[ ).aXqXK.y s.",
"yXyX2X=X6XH.C W L.`.<X-X6X<X$X&X+XB.B G.dX2XS.z a.uX=XlXwX3XV.P T R.].<XqX0X&X&X<X@Xh.P P.<XaX!.V a.",
"a.q.4.a.a.#.! N I ` $.$.{ / ~ ! | | I / a.q.=.@.*.a.0.5.t.t.1._ f _ } } } } } } ) ,.$.I ) y.N.t...<.",
"% 9 * 7 k e e 7 V f r w N Y B d f f 4 3 e k h = ; - g 9 8 i 5 5 d K K K a a K K 5 p p 5 6 u u 3 k e ",
"= q.l.C.!.!.!.+X^.)._.).).'._._.$X&X).T.G.F.S.7.= @ -.z.l._.U.#XU.T.OXOX*X*XOXOX3X3X#X@X_.J.G.H.o.O ",
"e W.yX2XuX2X,X1X,X8XaXwX<X$X;XqX$X<X5X8X1X6XpXQ.j j v.rXtX6X3X7X7X7XwXwX7X7X7X7X,X#X+X=X1X1XrXiX{. .",
"h J.=X=XuXpX6X4XaX8X,X@X,X,X;X0X;X;X*X$X#X,X1Xx.2 n d.oX:X=X6X8XlX8X,X,X,X4X1X6X,X,X=X|..X X.XQ.c.e ",
"9 c./.).`.).OX@X!.I.Y.OX_.'._.(.*X&X%X%X$X).J.-.< b >.XX[.^.4XOX).Y.^.^.!.).).!.^.[.[.~.~.E.>.+.i.n ",
"  m W W I k l l p i p P B B m B d T T T T d z 0 < < n n M S N l m m z r k S V h j D H b J 2 2 # 1 O ",
"m r & i o.0.s.4.r.W 8 8 I { { ~ [ &.T u & . 3 M F v v + 9 %.%.t.7.%.W 8 9 R / ....Q J j # # 2 2 g S ",
",X8X^ ~ 2XdXtX1X;X&.H.`.2X<X$X5X&XqX_.G.3.o ,.7X5X#XU.T ` ;X9X>X1X1X@.g.2X<X&XqXqX0X(.x.d.+.> M !.=X",
"<XeX{ ~ J.~.{.>XD.z f.pX,X&XaXwX&XeXqX*Xu.s 3.eX3X5X3X,._ J.(. XpX'.~ j.#X$X7X%X;X<XfXfX;X=.> M `.yX",
"&X$X$.~ 6.=.7.p.w.z =.6X$X$X<X$XqX-XpX'.q.B [ R.hXwX3X1.Y &.=.u.l.&.B G.8XqXlX&X5X&X&X;X`.=.x #.=X8X",
"V.u.d w m A O.X.M ( O./.qXqX&X5X$X$X<X'.9.s A g.V.n.e.K u Y A Q [ M & x.2X,X&X$XqXqX<X$X`.7.0 h m.K.",
"T [ ,.F.`.-X|.^.S M C !.<X<X+X&X%XqX-X;X=.+ t [ ` ` $.,.N.$X<X>X/.z.0 q.qX,X*X5X+X$X,X,X$X7.8 e ! ' ",
"&X&X<X0X-X-X1XrXz.e / 2X;X$X&X5X_.,X^.;X7.F >.Y.^.`.#X,X5X7X,X$XtXD.& #.>X<X$X5XqX&X%X<X@X4.S a.F.I.",
"5X&XqXfX2X1XyXpXJ.8 #.'.^._.5X<X8XpX`.|.;.H >.~.|.2XaXlX8X8X8X6X>Xv.s 7.-X$X+X$X&X@X&X6X,X8.W k.@X,X",
"Y.B.m.F.J.P.H.H.z.m @.^ ~ _ ~ T ' ` w.f.v g F i.z.S.m.C.M.F.I.!.D.;.- Q / B / ~ _ } 2.8.h.%.^ a.n.M.",
"s P w d B B ( m k X q & i d 6 d d & & ; x b - 1 c 0 I I L l L E k j g M = i d f q l 7 q O 7 e k I V ",
"T u.G.Y.H.G.).A.a.k * <.T.^.G.Y.L.Y.x.$ - ;.-.d.Q Z h.F.K.P.M.J.v.-.M g W / r.Y.OXI.I.Z.y e 5.k.n.<.",
"&.&XzXkX6X1X6X{.kXm.q F.dXpXaX&XqX1X|.G d.iX}.rXf.` 6XuXsXjX=X-X}.}.i.= g.H.2XkX4X4X8XOXL s.sXsX6Xm.",
"| G.*X_.,X6X6X=X`.Z.I y.R._.wX_.@Xm.%.z b.oX:X=X6.W P.!.@X-X-X{./.rXQ.k A.^.,X_.7X@X!.e.l W.yX!.2Xe.",
"% s d N ` ^ I ! ! E e 8 d s B w * r % ; w.c.Q.s.4 % i L R S o.M S D Z * Z i N P l q . % 7 o.W.=X5.k ",
"9.9.3.<.8.T 3 l 8.5.m.n.Y.B.G.A.6.o.X r R 7 k O 2.y.5.8.5.o.X.= D #.c.c.l.m.m.m.n.s.! 3 R V e e 7 I ",
"eXqX8X2XaXJ.o.y.6X4X8XaXwX<X,X<XsXJ.o.1XyXK.2.q K.hX4X6X1XrXd. .j c.tXtX2XkXkX<X4XaXI.` !.=X!.o.e k.",
"5X;X,X-X8XL.^ <.-XyX`.<X@X<XeXqX`.m.#.!.=XkXK.l n.7X4X4X,XdX#.j M c.tX`.,X`.@X8X8X@XK.^ =X1XuXW.q Z.",
"qX8X,XfXyXw.Z Z D.(.;X;X<X7X7X3X@Xj./ A.kX8XK.l e.uX4X6X8XqXg.m s 7.|.;X-X2X8X4X,X@Xn.! T.7XqXI.l s.",
"t.y.<.0.7.G v v F [ #.{ } ' ] _ ,./ w ~ 0.t.h.o.8.n.8.a.l.h.%.A , A &.{ ~ ` ' ` ) ,.} u 2.r.u.0.E 5.",
"3 m q 8 r g z M - t z r u f K K l C q e e 7 r 7 k O 3 % 7 8 k l t s d s w d f p 7 P P 3 u w u i l 7 ",
"% <.k.x.D.x.c.p.D.^._.'.OX#X3X#X+X,X!.!.P.A.x.w.& = p.C.H.H.P.K._.^.Y.'.+X`.@X$XOX,XOXI.).Y.A.A.*.$ ",
"Z W.pXtXpXtXyX-X1X2X2X<X<X5X5X4X4X4X=X1XtXiXrXXX: = E.}.yX1XuX1X>X;X-XqX2X,X$X<X6X<X_.-X2XqX1X>X{.D ",
"h S.-X[.{.1XaXkX6X4X6X<X<X,X<X,X=X,X=X=X:X}.Q.E.b @ o.!.1X=X1XuXfX<X<X2X<X$X$X<X<X].$X$X;X].>XrXD.j ",
"- i./.`.=X`.`.I.I.I.T.)._.^.'.'.=X#X1X=XQ.d.:. .: >  .!.1X=X`.OX).^.).).^.Y.R.'.].).;X].].D.^.~.z.D ",
"  c F M V k l N p i d d B B B m I L E X.S j @ @ 1 b j  .k k L l u r d d N B B B B s Q A [ c F : j + ",
"b : O ; o.a.t.y.y.L 5 f I / #.~ _ 2.E 8 +   @ n n < g $ h 5.8.r.t.8.P 3 Y B [ | | [ [ F > t c v m M ",
"[. X-.S J.uX#X7X3Xe.h.4XqX;X>X0X,X7X).x.o.: :.oXE.i.d.S #.4X7XlX6X@Xt.t.eX<XqX0X;X$X0X>Xv.O.c z =X2X",
"[. X..= 0.1X,XuXK.` y.6X5X-X;XpX8XaXaX2Xi.= X..X}.XXiX@.( ).L.3X4X!.{ 8.7X;X&X*XeX0X0X9X(.[ t M _.=X",
"gXS...h S 5.h.a.e.E m.6X<X2X0X2X%X5X$X`.8.k *.[.{.{.2X&.N 8.3.n.h.0.N u.lX&XwXeXqX0X].0X|.=.x O.,X5X",
"g.( 0 r m C / $.~ 3 h.qX<X<X-X$X7X&X&X&X9.i W t.H.k.%.f u ~ ~ T ' ^ 7 s.lX&X&X&XeXqX&X2X>Xw.9 m N.F.",
"( #...#.x.S.A.-Xt.3 q.fX6X,X#XeX&X*X5XeX9.4 5 ) $.$.` 3.B.R.&X&X!.s.y y.wX*X&X*XR.&X$X$X$X%.& e E ) ",
"/.2X-X(.iX2X-XiX^.w 0.,X@X#XOXqXeX&X&X*X3.P r.I.U.OX3X7XeX5X5X6XhX!.7 1.&X&XwXeX&XeX,X2X=X0.^ 0.G.!.",
"uX@X2XdX1X>XpX1XH.9 8.`.T.5X%X%X#XeXeXOXe.1.K.T.wX4XwX<X7XlX%X4X6X!.q e.#XOX&X*X&XeX,X6X@X5.o.C.OX4X",
"Z.C.m.C.F.J.J.J.0.E ^ E ) E ) ) ) 1.e.1.5.L y.s.Z.Z.M.M.K.K.I.I.K.a.E ] E ) ) ) ] ) 2.8.5.5.E 0.M.n.",
"N l l l V I R I L O y q y y p y q q q 7 L 4 ) E L l l l l L E E ^ l O 7 q y y y y q q y 7 k 7 ) ^ E "
};
